<?xml version="1.0" encoding="UTF-8"?>
<svg width="10px" height="10px" viewBox="0 0 10 10" version="1.1" xmlns="http://www.w3.org/2000/svg" xmlns:xlink="http://www.w3.org/1999/xlink">
    <!-- Generator: Sketch 58 (84663) - https://sketch.com -->
    <title>plus copy</title>
    <desc>Created with Sketch.</desc>
    <g id="Symbols" stroke="none" stroke-width="1" fill="none" fill-rule="evenodd">
        <g id="Bet" transform="translate(-130.000000, -30.000000)" fill="#FFFFFF" fill-rule="nonzero">
            <g id="Group-3" transform="translate(5.000000, 15.000000)">
                <g id="Group-2">
                    <g id="plus-copy" transform="translate(117.000000, 7.000000)">
                        <path d="M16.75,12.375 L13.625,12.375 L13.625,9.25 C13.625,8.905 13.345,8.625 13,8.625 C12.655,8.625 12.375,8.905 12.375,9.25 L12.375,12.375 L9.25,12.375 C8.905,12.375 8.625,12.655 8.625,13 C8.625,13.345 8.905,13.625 9.25,13.625 L12.375,13.625 L12.375,16.75 C12.375,17.095 12.655,17.375 13,17.375 C13.345,17.375 13.625,17.095 13.625,16.75 L13.625,13.625 L16.75,13.625 C17.095,13.625 17.375,13.345 17.375,13 C17.375,12.655 17.095,12.375 16.75,12.375 Z" id="Path"></path>
                    </g>
                </g>
            </g>
        </g>
    </g>
</svg>