<svg width="259" height="262" viewBox="0 0 259 262" xmlns="http://www.w3.org/2000/svg">
    <path d="M60.725 167.468 47.12 251.962c-.494 3.078.784 6.179 3.307 7.985a7.955 7.955 0 0 0 8.537.467l70.766-39.62 70.766 39.631a8.079 8.079 0 0 0 3.898 1.012c1.632 0 3.253-.5 4.639-1.49 2.523-1.806 3.801-4.907 3.307-7.985l-13.605-84.494 57.557-59.767a8.256 8.256 0 0 0 1.88-8.29 8.077 8.077 0 0 0-6.422-5.471l-79.228-12.26L137.01 5.05c-2.652-5.721-11.92-5.721-14.572 0l-35.5 76.63L7.71 93.94a8.077 8.077 0 0 0-6.422 5.472c-.955 2.904-.236 6.102 1.869 8.289l57.568 59.767zm32.892-70.32a8.06 8.06 0 0 0 6.067-4.59l30.046-64.847 30.046 64.836c1.138 2.459 3.415 4.188 6.067 4.59l67.985 10.52-49.45 51.347c-1.794 1.85-2.6 4.46-2.191 7.017l11.597 71.984-60.156-33.68a8.03 8.03 0 0 0-3.898-1.023 7.912 7.912 0 0 0-3.898 1.023l-60.157 33.68 11.598-71.984a8.234 8.234 0 0 0-2.19-7.017l-49.45-51.347L93.616 97.15z" fill="#000" fill-rule="nonzero" opacity=".1"/>
</svg>
