<svg width="275" height="305" viewBox="0 0 275 305" xmlns="http://www.w3.org/2000/svg">
    <g fill="#000" fill-rule="nonzero" opacity=".1">
        <path d="M121.551 252.791c-9.381-.005-17.56-6.455-19.854-15.655-2.292-9.2 1.887-18.8 10.145-23.302l-3.145-11.872-11.739 3.18c.291 9.034-5.246 17.214-13.677 20.21-8.432 2.994-17.81.112-23.169-7.121-5.358-7.233-5.458-17.146-.247-24.488-8.116-3.736-12.904-12.36-11.833-21.312 1.07-8.953 7.753-16.173 16.516-17.844 8.763-1.671 17.586 2.592 21.807 10.536l11.743-3.181-3.145-11.872c-9.493.282-17.933-6.07-20.393-15.348-2.254-8.442.99-17.405 8.1-22.38a20.243 20.243 0 0 1 23.565.227c3.7-8.198 12.222-13.03 21.067-11.944 8.846 1.086 15.978 7.84 17.63 16.695 1.653 8.855-2.554 17.773-10.399 22.045l3.145 11.872 11.739-3.181c-.3-9.038 5.236-17.227 13.672-20.226 8.436-2.999 17.82-.113 23.179 7.126 5.358 7.24 5.45 17.16.228 24.5 8.116 3.736 12.904 12.359 11.833 21.312-1.07 8.953-7.753 16.173-16.516 17.844-8.763 1.67-17.586-2.592-21.807-10.536l-11.738 3.18 3.14 11.873c9.493-.282 17.933 6.07 20.393 15.347 2.254 8.443-.99 17.406-8.1 22.38a20.243 20.243 0 0 1-23.565-.227c-3.288 7.396-10.557 12.155-18.575 12.162zm-9.525-61.43c2.132 0 3.998 1.45 4.548 3.534l5.439 20.539a4.81 4.81 0 0 1-.47 3.614 4.716 4.716 0 0 1-2.86 2.219c-5.45 1.443-8.956 6.799-8.142 12.437.814 5.638 5.687 9.756 11.318 9.564 5.63-.193 10.218-4.634 10.654-10.315.158-2.011 1.552-3.704 3.48-4.224l1.883-.505a4.682 4.682 0 0 1 5.094 1.905c3.19 4.661 9.33 6.161 14.271 3.486 4.942-2.674 7.114-8.673 5.048-13.942-2.065-5.27-7.71-8.134-13.122-6.659-2.51.679-5.09-.828-5.764-3.366l-5.443-20.539a4.81 4.81 0 0 1 .47-3.614 4.716 4.716 0 0 1 2.86-2.22l20.307-5.5a4.662 4.662 0 0 1 3.574.476 4.755 4.755 0 0 1 2.194 2.891c1.427 5.512 6.723 9.058 12.297 8.235 5.575-.822 9.647-5.752 9.457-11.446-.19-5.694-4.582-10.334-10.2-10.775a4.723 4.723 0 0 1-4.176-3.519l-.499-1.905a4.79 4.79 0 0 1 1.884-5.152c4.609-3.226 6.092-9.435 3.447-14.433-2.645-4.998-8.576-7.194-13.786-5.105-5.21 2.088-8.043 7.798-6.584 13.271.671 2.54-.819 5.148-3.329 5.829l-20.308 5.505a4.662 4.662 0 0 1-3.573-.475 4.755 4.755 0 0 1-2.195-2.892l-5.438-20.539a4.81 4.81 0 0 1 .47-3.614 4.716 4.716 0 0 1 2.859-2.219c5.45-1.443 8.956-6.799 8.143-12.437-.814-5.638-5.688-9.756-11.318-9.564-5.63.193-10.218 4.634-10.654 10.315-.158 2.011-1.552 3.704-3.48 4.224l-1.883.505a4.682 4.682 0 0 1-5.095-1.905c-3.19-4.661-9.329-6.161-14.27-3.486-4.942 2.674-7.114 8.673-5.049 13.942 2.066 5.27 7.711 8.134 13.123 6.659 2.51-.679 5.09.828 5.763 3.366l5.443 20.539a4.81 4.81 0 0 1-.47 3.614 4.716 4.716 0 0 1-2.859 2.22l-20.308 5.5a4.662 4.662 0 0 1-3.573-.476 4.755 4.755 0 0 1-2.194-2.891c-1.428-5.512-6.723-9.058-12.298-8.235-5.574.822-9.646 5.752-9.456 11.446.19 5.694 4.582 10.334 10.199 10.775a4.723 4.723 0 0 1 4.176 3.519l.5 1.905a4.79 4.79 0 0 1-1.884 5.152c-4.609 3.226-6.092 9.435-3.447 14.433 2.645 4.998 8.576 7.194 13.786 5.105 5.21-2.088 8.043-7.798 6.583-13.271-.67-2.54.82-5.148 3.33-5.829l20.307-5.505a4.505 4.505 0 0 1 1.22-.166zM222.055 85.138c-9.713 0-23.89-4.878-38.146-13.349-19.755-11.747-38.099-29.64-31.612-41.173 6.034-10.762 27.308-4.753 43.69 3.704l-4.27 8.47c-19.05-9.806-30.22-9.298-31.255-7.486-1.411 2.51 6.73 15.53 28.198 28.29 16.363 9.726 30.676 13.253 36.363 11.722.498-.079.96-.311 1.321-.665 1.012-1.802-3.932-11.823-21.062-23.703l5.324-7.839c15.4 10.677 29.77 25.804 23.923 36.229a10.995 10.995 0 0 1-7.056 5.158c-1.77.452-3.592.667-5.418.642z"/>
        <path d="M202.482 118.87c-9.662 0-23.77-4.845-37.947-13.275-19.652-11.683-37.9-29.479-31.448-40.944l18.908-33.691 8.142 4.666-18.908 33.71c-1.404 2.492 6.696 15.442 28.074 28.131 16.278 9.674 30.526 13.191 36.173 11.66a2.424 2.424 0 0 0 1.32-.662l18.903-33.71 8.141 4.661-18.903 33.71a10.97 10.97 0 0 1-7.042 5.135c-1.77.44-3.59.644-5.413.61z"/>
        <path d="M200.035 62.65a9.38 9.38 0 0 1-4.766-1.316l-8.266-4.912c-4.495-2.715-6.03-8.551-3.462-13.16l11.639-20.729c5.358-9.703 16.644-14.384 27.212-11.287l12.753 3.758c4.245 1.238 8.773-.66 10.902-4.569l1.568-2.794A14.22 14.22 0 0 1 256.349.79a13.834 13.834 0 0 1 10.83 1.497c6.784 4.105 9.089 12.92 5.196 19.87l-1.275 2.275c-8.569 15.536-26.634 23.035-43.55 18.077l-9.178-2.704-10.075 17.972a9.498 9.498 0 0 1-8.262 4.874zm-8.27-14.687a.187.187 0 0 0 .033.238l8.266 4.912 10.075-17.991c2.148-3.863 6.649-5.724 10.864-4.492l9.173 2.703c12.71 3.693 26.262-1.958 32.686-13.628l1.276-2.27c1.368-2.42.578-5.5-1.781-6.947a4.596 4.596 0 0 0-3.576-.477 4.797 4.797 0 0 0-2.952 2.327l-1.568 2.794c-4.288 7.753-13.308 11.494-21.756 9.022l-12.754-3.753c-6.358-1.84-13.133.993-16.338 6.834l-11.649 20.728zM118.357 58.56l-.74-9.832c3.33-.262 6.733-.39 10.106-.39v9.863c-3.13 0-6.28.118-9.366.36zM127.625 304.927C61.177 304.994 5.891 253.502.767 186.776-4.357 120.049 42.41 60.608 108.078 50.383l1.413 9.374c-56.033 8.824-97.849 56.64-99.465 113.738-1.617 57.098 37.426 107.237 92.868 119.263 55.443 12.026 111.515-17.482 133.378-70.188l8.685 3.656c-19.704 47.722-66.016 78.786-117.332 78.701zM249.184 215.99l-9.28-2.978c.977-3.025 1.87-6.152 2.623-9.29l9.505 2.224a150.3 150.3 0 0 1-2.848 10.044zM253.558 196.567l-9.392-1.42a119.544 119.544 0 0 0 1.397-18.239 118.086 118.086 0 0 0-28.903-77.393l7.187-6.197a127.55 127.55 0 0 1 31.217 83.59c0 6.582-.504 13.154-1.506 19.659z"/>
    </g>
</svg>
